<?xml version="1.0" standalone="no"?>
<!DOCTYPE svg PUBLIC "-//W3C//DTD SVG 20010904//EN"
 "http://www.w3.org/TR/2001/REC-SVG-20010904/DTD/svg10.dtd">
<svg version="1.0" xmlns="http://www.w3.org/2000/svg"
 width="900.000000pt" height="900.000000pt" viewBox="0 0 900.000000 900.000000"
 preserveAspectRatio="xMidYMid meet">
<metadata>
Created by potrace 1.11, written by Peter Selinger 2001-2013
</metadata>
<g transform="translate(0.000000,900.000000) scale(0.100000,-0.100000)"
fill="#000000" stroke="none">
<path d="M0 4500 l0 -4500 4500 0 4500 0 0 4500 0 4500 -4500 0 -4500 0 0
-4500z m6309 3178 c106 -32 188 -83 277 -173 138 -139 201 -302 191 -491 -15
-258 -177 -474 -432 -576 -76 -31 -87 -32 -215 -33 -122 0 -142 3 -208 27
-104 38 -176 83 -252 159 -77 75 -130 161 -168 268 -22 64 -26 94 -26 191 -1
96 3 127 23 185 83 246 289 427 530 465 77 12 201 2 280 -22z m-2374 -303 c33
-9 96 -36 140 -62 44 -25 195 -112 335 -194 1052 -610 1317 -764 1400 -816
156 -96 218 -196 228 -365 5 -100 -18 -194 -65 -264 -16 -23 -199 -236 -408
-474 -209 -238 -382 -439 -383 -447 -3 -12 10 -14 85 -8 48 3 367 21 708 40
438 24 634 31 668 25 70 -14 160 -65 213 -122 62 -67 96 -144 101 -232 3 -40
-33 -529 -81 -1107 -92 -1118 -87 -1084 -154 -1181 -39 -57 -93 -100 -169
-136 -50 -23 -71 -27 -148 -27 -82 0 -96 3 -157 34 -126 63 -215 188 -225 315
-3 33 5 176 16 316 23 269 59 708 90 1100 11 129 18 237 16 239 -3 2 -122 -2
-266 -9 -175 -9 -262 -17 -265 -25 -3 -6 11 -45 31 -87 162 -352 207 -790 124
-1203 -66 -323 -239 -668 -462 -920 l-36 -40 -250 249 -250 250 33 36 c84 93
175 255 225 402 54 156 66 235 66 438 -1 166 -3 196 -27 290 -67 268 -182 468
-373 648 -245 233 -549 352 -895 352 -319 0 -577 -93 -843 -302 l-28 -22 -247
247 -247 248 55 50 c234 209 572 378 898 449 94 21 97 22 143 73 25 29 162
185 304 347 143 162 339 386 437 497 98 111 178 208 178 215 -1 16 -522 318
-550 318 -12 0 -151 -117 -363 -306 -188 -168 -360 -316 -382 -329 -187 -111
-433 -32 -536 172 -32 62 -34 74 -34 162 0 84 4 104 27 154 44 93 -6 46 695
669 198 176 342 297 374 313 88 45 162 53 254 30z m-1255 -3619 c-281 -463
-224 -1105 135 -1513 201 -229 437 -365 745 -429 102 -22 360 -25 460 -6 163
32 371 111 475 181 l31 20 253 -253 254 -254 -123 -80 c-524 -348 -1144 -432
-1736 -237 -702 231 -1227 840 -1354 1570 -91 522 34 1062 347 1504 l46 63
252 -252 252 -252 -37 -62z"/>
</g>
</svg>
